<svg xmlns="http://www.w3.org/2000/svg" xmlns:xlink="http://www.w3.org/1999/xlink" width="18" height="16" viewBox="0 0 18 16">
  <defs>
    <path id="oval-3-a" d="M10,17 C13.8659932,17 17,13.8659932 17,10 C17,6.13400675 13.8659932,3 10,3 C6.13400675,3 3,6.13400675 3,10 C3,13.8659932 6.13400675,17 10,17 Z M10,18 C5.581722,18 2,14.418278 2,10 C2,5.581722 5.581722,2 10,2 C14.418278,2 18,5.581722 18,10 C18,14.418278 14.418278,18 10,18 Z M10.4383146,11.3995704 L17.6852275,3.98463614 C18.0712511,3.58966247 18.7043746,3.58240702 19.0993482,3.96843065 C19.4943219,4.35445427 19.5015774,4.98757768 19.1155537,5.38255136 L11.0706319,13.6139967 C10.6480244,14.0464023 9.94132889,14.0077695 9.56837548,13.5318731 L5.33693016,8.13245899 C4.99626215,7.69775938 5.07248983,7.06919973 5.50718944,6.72853173 C5.94188905,6.38786372 6.5704487,6.46409139 6.91111671,6.89879101 L10.4383146,11.3995704 Z"/>
  </defs>
  <use fill="#282828" transform="translate(-2 -2)" xlink:href="#oval-3-a"/>
</svg>
