<svg xmlns="http://www.w3.org/2000/svg" xmlns:xlink="http://www.w3.org/1999/xlink" width="16" height="16" viewBox="0 0 16 16">
  <defs>
    <path id="icon-medx.svg-a" d="M16.1588658,14.5110316 C16.052211,14.3199025 15.9516912,14.1386837 15.8516434,13.9593527 C16.0314464,13.7550096 16.0451322,13.6360848 15.9144093,13.4468434 C15.8162491,13.3043224 15.7374378,13.2882769 15.500532,13.3713355 C15.3943492,13.1943641 15.2853348,13.0136173 15.1777361,12.8338143 C15.4641939,12.5733123 16.1777361,12.6761917 16.4811898,13.1075301 C16.7681195,13.5162162 16.6086092,14.242507 16.1588658,14.5110316 M15.3334238,8.32717746 C15.332008,8.56172361 15.4292243,8.66318724 15.6576355,8.66554686 C15.896429,8.66790648 16.0044995,8.56266746 16.0035618,8.32953708 C16.0021399,8.10726094 15.890294,7.99635884 15.667074,7.9958853 C15.4381909,7.99541499 15.3343677,8.09829439 15.3334238,8.32717746 M15.660467,7.33989574 C16.1692009,7.33660929 16.6538667,7.81466815 16.658586,8.32340207 C16.6628333,8.83496752 16.1701448,9.33426295 15.6632986,9.33097579 C15.1630593,9.32812794 14.6694269,8.83355175 14.6675338,8.33425631 C14.6656516,7.83260126 15.1550366,7.3427443 15.660467,7.33989574 M12.9993828,11.3370621 C13.2221309,11.3375325 13.3353926,11.2252146 13.3377522,11.0029385 C13.3401118,10.7811343 13.2268501,10.6640972 13.0074055,10.6603218 C12.7780505,10.6565464 12.6591257,10.7740554 12.6610134,11.0024666 C12.6624292,11.2233269 12.7780505,11.3370621 12.9993828,11.3370621 M12.0040869,10.9935 C12.006455,10.4904292 12.4967839,10.0029319 13.0007986,10.0034034 C13.5104764,10.0043476 14.0017491,10.5012834 13.9956141,11.012377 C13.989951,11.514032 13.493959,11.9991697 12.9904163,11.9953944 C12.4873454,11.9906751 12.0017358,11.4979866 12.0040869,10.9935 M15.3334173,5.66566851 C15.33248,5.89549543 15.4344155,6.00073445 15.6614109,6.00356599 C15.8860466,6.00592561 16.0007241,5.89596735 16.0030838,5.67557891 C16.0063872,5.44433623 15.9035078,5.33626567 15.679344,5.33343412 C15.4363032,5.33013066 15.3343677,5.42829082 15.3334173,5.66566851 M16.6585944,5.67085968 C16.6557544,6.18195321 16.1762798,6.6585963 15.6647144,6.6585963 C15.1536208,6.6585963 14.6590446,6.16024471 14.6665954,5.65339849 C14.6741462,5.16259769 15.1706101,4.66896534 15.6585793,4.66660033 C16.168729,4.66471803 16.6609456,5.15929422 16.6585944,5.67085968 M12.9975423,8.66545247 C13.2259535,8.66686824 13.3354398,8.56162923 13.3377994,8.33888117 C13.340159,8.11377349 13.2297289,7.99815215 13.0098123,7.99579253 C12.7776258,7.99296098 12.6624764,8.10480694 12.6610545,8.33416193 C12.6601168,8.55738191 12.7686593,8.6640367 12.9975423,8.66545247 M13.0050931,7.33934645 C13.5227936,7.34689723 14.0041559,7.83816996 13.9956613,8.34973542 C13.9871666,8.85233432 13.4822081,9.34313512 12.9866881,9.3308651 C12.4751226,9.31906701 11.9951761,8.81929965 12.0036707,8.30773419 C12.0112215,7.81504569 12.5105169,7.33226759 13.0050931,7.33934645 M13.0049515,5.33433078 C12.7722931,5.33244308 12.6656383,5.43296286 12.6628067,5.65712669 C12.6599752,5.88648168 12.7642704,5.99832764 12.9860746,6.00257495 C13.2225084,6.00729419 13.3348263,5.89969555 13.3362485,5.66798094 C13.3371859,5.44004172 13.2343065,5.33621847 13.0049515,5.33433078 M12.9870184,6.65996487 C12.4839476,6.65618948 11.9969222,6.15925367 12.004001,5.65759862 C12.0115518,5.15311202 12.5028245,4.66703045 13.0049515,4.66655853 C13.4999996,4.66655853 13.9992951,5.16962935 13.9964755,5.66655853 C13.9931601,6.17954639 13.5004716,6.66374027 12.9870184,6.65996487 M15.3329991,10.997417 C15.3329991,11.2277158 15.4382381,11.3362583 15.6614581,11.3372079 C15.8903411,11.338146 16.0054906,11.2220527 16.0036029,10.991282 C16.0017152,10.7713655 15.8870377,10.6595195 15.6633458,10.6604574 C15.4391819,10.6614072 15.3329991,10.7704216 15.3329991,10.997417 M16.6595784,11.0059116 C16.6605209,11.499072 16.1711358,11.9931763 15.6789193,11.9955481 C15.1673538,11.9983675 14.6675864,11.5066228 14.6671142,11.0002485 C14.6666426,10.4981216 15.1569715,10.0063769 15.6605142,10.0040006 C16.1725516,10.0007138 16.6586332,10.4877392 16.6595784,11.0059116 M7.31855227,4.00567637 L4.00989415,4.00567637 L4.00989415,4.32611266 L4.19394446,4.32611266 C5.15572526,4.32611266 6.11703415,4.32611266 7.07834303,4.32564074 C7.37187967,4.32516881 7.37707083,4.31714611 7.31855227,4.00567637 L7.31855227,4.00567637 Z M7.65833745,2.66116532 L6.89051734,2.66116532 C5.86455489,2.66116532 4.83953628,2.66258109 3.81357383,2.65927166 C3.70078403,2.6588057 3.6507601,2.68617728 3.66019858,2.80698979 C3.66916513,2.92072343 3.66916513,3.0368167 3.65878281,3.15055035 C3.64604087,3.28457672 3.68757016,3.32846564 3.82961924,3.32799748 C5.0476547,3.32280255 6.26616209,3.3256341 7.48466947,3.32516217 C7.53988456,3.32516217 7.59509965,3.31949909 7.65833745,3.31619562 L7.65833745,2.66116532 Z M2.68331621,14.0033832 L2.82300567,14.0033832 C3.74986411,14.0029112 4.67625063,14.0033832 5.60310908,14.0019674 C5.9202419,14.0014955 6.00282858,13.9198526 6.0033005,13.6060233 C6.00424435,12.3096485 6.00424435,11.0132736 6.00424435,9.71737074 C6.00424435,9.42289025 5.91693844,9.3327528 5.62481757,9.3327528 C4.70315029,9.33133703 3.78148301,9.33228087 2.86028765,9.33322472 C2.80460064,9.33322472 2.7484417,9.33794396 2.68331621,9.34124743 L2.68331621,14.0033832 Z M8.3440428,2 C8.34073934,2.56725247 8.33696395,3.13403301 8.33366048,3.70128548 C8.33318855,3.79425448 8.33366048,3.88675156 8.33366048,3.99576597 L8.0075611,3.99576597 C7.98302106,4.31242687 7.98207721,4.58944617 8.18311677,4.86221816 C8.56537509,5.38133439 8.9079918,5.92970991 9.26240662,6.46911887 C9.30252014,6.52999705 9.32989173,6.61163987 9.32989173,6.68384422 C9.33366712,9.29263927 9.33321407,11.9014343 9.33321407,14.5107013 L9.33321407,14.6466154 L8.67202988,14.6466154 L8.67202988,7.00239282 L7.67957402,7.00239282 L7.67957402,6.33839596 L8.38132479,6.33839596 C8.31667122,6.23929195 8.27231038,6.17133492 8.22747761,6.10384981 C8.00284186,5.76595233 7.78056572,5.42663908 7.54885111,5.09346084 C7.5148726,5.04438076 7.43606131,4.999548 7.37754276,4.999548 C6.23690281,4.99482876 5.09673478,4.99530068 3.95609484,4.99907607 C3.90371129,4.999548 3.8286754,5.02691958 3.80130381,5.06703311 C3.52758798,5.46628069 3.26142293,5.87071943 2.99431403,6.27421432 C2.98629132,6.28554049 2.98676325,6.30205783 2.97874054,6.33462057 L6.98537404,6.33462057 L6.98537404,6.99295434 L2.6752935,6.99295434 L2.6752935,8.66498055 L2.84896148,8.66498055 C3.75505528,8.66545247 4.66162099,8.67866634 5.56724286,8.66120516 C6.17696848,8.64987899 6.67484814,9.19211949 6.66682544,9.73955116 C6.64842041,11.0307348 6.66446582,12.3223904 6.6602185,13.6135741 C6.65880273,14.2119735 6.19820505,14.6584135 5.5917829,14.6598292 C4.67530678,14.6617169 3.75883067,14.6621888 2.84235455,14.6560538 C2.70124932,14.65511 2.65594463,14.6914481 2.6573604,14.8377445 C2.6653831,15.5305287 2.66066386,16.2233129 2.66255156,16.9151533 C2.66349541,17.25777 2.74419439,17.3375252 3.0886988,17.3375252 C4.54647157,17.338469 6.00471627,17.3379971 7.46296097,17.3379971 L7.6474832,17.3379971 L7.6474832,17.9949151 L7.46060135,17.9949151 L3.11748615,17.9949151 C2.57524565,17.9949151 2.20289773,17.7235589 2.03206129,17.2063303 C2.02592628,17.1879253 2.01129665,17.1718799 2.0004424,17.1548906 L2.0004424,6.53094089 C2.03678053,6.48988352 2.07830983,6.45260153 2.10804103,6.40729685 C2.46670316,5.87260712 2.80884795,5.32659123 3.18638703,4.80558729 C3.3737408,4.54744495 3.3340992,4.28458336 3.33362728,3.99293442 L3.00092096,3.99293442 L3.00092096,2 L8.3440428,2 Z M15.0795288,15.2829575 C14.6835847,15.5108967 14.309349,15.7265659 13.9308661,15.9450666 C14.0276105,16.1064646 14.1130287,16.2489856 14.1984469,16.3915066 C14.3296418,16.6095354 14.4565893,16.8294519 14.5939191,17.0432334 C14.7944868,17.3565909 15.1583401,17.4354022 15.4962375,17.2466326 C15.8204492,17.0654139 15.9426775,16.7784842 15.7826953,16.4807002 C15.5670261,16.0795649 15.3225696,15.6935312 15.0795288,15.2829575 L15.0795288,15.2829575 Z M14.7350244,14.7190085 C14.5311533,14.3792233 14.3409679,14.0625624 14.1507826,13.7463734 C14.1210514,13.6972933 14.0917922,13.6482133 14.0592294,13.6014928 C13.8473356,13.2952142 13.4693246,13.228201 13.1337867,13.4367914 C12.8020243,13.6420783 12.7302918,13.9233449 12.9294437,14.2754001 C13.0648859,14.5156093 13.2111822,14.7496835 13.3527594,14.9861174 C13.429683,15.1140087 13.5070785,15.2414282 13.5896652,15.378758 C13.9780585,15.1550661 14.3499345,14.9408127 14.7350244,14.7190085 L14.7350244,14.7190085 Z M10.6604338,16.0210464 C10.6509954,16.0134956 10.6429727,16.0007537 10.6354219,16.0007537 C10.1568911,16.0007537 9.67741645,15.9823486 9.20077336,16.0097202 C8.84635855,16.0300129 8.66372402,16.283908 8.66135058,16.6699417 C8.6594767,17.0432334 8.85107779,17.2928812 9.21115569,17.3183651 C9.59954902,17.3466805 9.99030196,17.3329947 10.3801111,17.3367701 C10.4711924,17.3377139 10.5627456,17.3367701 10.6604338,17.3367701 L10.6604338,16.0210464 Z M11.34142,17.3197808 C11.8477942,17.3197808 12.3362354,17.3391297 12.8218451,17.3136458 C13.1460568,17.2966566 13.3197247,17.0569192 13.3376578,16.6973133 C13.3555909,16.3410108 13.1885299,16.097498 12.8709252,16.0201025 C12.8260924,16.0087764 12.7793719,15.9974502 12.7331234,15.9974502 C12.2720538,15.9955625 11.8109842,15.9965063 11.34142,15.9965063 L11.34142,17.3197808 Z M14.625538,13.265483 C15.1975097,14.1956449 15.760043,15.1314699 16.3164412,16.0710703 C16.5755274,16.5090156 16.5080423,17.1064712 16.1720325,17.5198765 C15.809123,17.9658446 15.332008,18.0470155 14.8039252,17.9144049 C14.4414877,17.8237955 14.1507826,17.6232279 13.9672043,17.2872181 C13.9478554,17.2513519 13.9209557,17.219733 13.9030226,17.1937772 C13.795424,17.3320508 13.7033988,17.4792911 13.584474,17.5991597 C13.324444,17.8610775 13.0063673,17.9960477 12.6316598,17.995577 C11.5434034,17.9932162 10.4556189,17.9951039 9.36783441,17.99416 C8.6811852,17.9936881 8.08372961,17.4646614 8.00869371,16.7935857 C7.93648937,16.1479939 8.42493055,15.483997 9.09742204,15.3655442 C9.38623944,15.3145764 9.68874262,15.3386445 9.9851108,15.3377006 C10.8855415,15.335813 11.7859722,15.3381726 12.6868748,15.3386445 C12.710943,15.3386445 12.735483,15.335341 12.7883385,15.3320376 C12.6458175,15.0951318 12.5108473,14.8756872 12.3810682,14.6529391 C12.0865877,14.1475087 12.1351959,13.6519887 12.462711,13.1880875 C13.0412897,12.3674119 14.2583813,12.6680274 14.625538,13.265483 Z M11.7531735,3.33180776 C13.4766394,3.35121237 15.1996334,3.3379985 16.9230993,3.3379985 C17.414372,3.3379985 17.8136196,3.63436668 17.9632195,4.10345899 C17.9726579,4.13224634 17.9872876,4.15961793 17.9995576,4.18698951 L17.9995576,17.154985 C17.9127236,17.3126076 17.8447666,17.4843879 17.7352802,17.6240773 C17.5592527,17.8487131 17.3176276,17.9770764 17.0137087,17.9950095 L17.0137087,17.3546088 C17.3147961,17.2517294 17.3388642,17.217279 17.3388642,16.882685 L17.3388642,4.46542458 C17.3388642,4.42389528 17.34028,4.38236598 17.3383923,4.34083669 C17.3261223,4.08930127 17.2298498,3.99633227 16.9768986,3.99586035 L11.7286335,3.99538843 L11.7286335,3.99538843 C11.415748,3.99538843 11.3331613,4.07844702 11.3331613,4.39463601 C11.3331613,7.75803729 11.3336332,11.1214386 11.3336332,14.4848399 C11.3336332,14.5353357 11.328914,14.5867754 11.3260824,14.6485974 L10.6748275,14.6485974 C10.671996,14.5976297 10.6668048,14.552325 10.6668048,14.5074922 C10.6663329,11.1488102 10.671996,7.79060004 10.6616086,4.43286184 C10.6597259,3.82691161 11.186393,3.32572848 11.7531735,3.33180776 Z"/>
  </defs>
  <use fill="#231F20" fill-rule="evenodd" transform="translate(-2 -2)" xlink:href="#icon-medx.svg-a"/>
</svg>
